<svg width="2048" height="2048" viewBox="0 0 2048 2048" fill="none" xmlns="http://www.w3.org/2000/svg">
<g clip-path="url(#clip0)">
<rect width="2048" height="2048" fill="#161E38"/>
<rect width="2048" height="2048" fill="url(#paint0_linear)"/>
<path d="M1634.32 1748.72L622.097 736.491V572.249L1634.32 1584.47V1748.72Z" fill="#161E38" stroke="#161E38" stroke-width="35" stroke-linejoin="round"/>
<path d="M1704.61 1936.73L734.946 967.058L667.752 831.644L1637.42 1801.31L1704.61 1936.73Z" fill="#161E38" stroke="#161E38" stroke-width="35" stroke-linejoin="round"/>
<path d="M1659.07 1559.73L646.846 547.5H1497.75L2509.98 1559.73H1659.07Z" fill="#161E38" stroke="#161E38" stroke-width="35" stroke-linejoin="round"/>
<path d="M1590.04 2182.64L567.565 1160.17L720.731 1002.34L1743.2 2024.81L1590.04 2182.64Z" fill="#161E38" stroke="#161E38" stroke-width="35" stroke-linejoin="round"/>
<path d="M945.279 999.841L846.409 785.66L1822.03 1761.28L1920.9 1975.46L945.279 999.841Z" fill="#161E38" stroke="#161E38" stroke-width="35" stroke-linejoin="round"/>
<mask id="path-6-inside-1" fill="white">
<path d="M543 1192.96V1160.35L1590.23 2207.58V2240.18L543 1192.96Z"/>
</mask>
<path d="M543 1192.96V1160.35L1590.23 2207.58V2240.18L543 1192.96Z" fill="#161E38"/>
<path d="M543 1160.35L567.749 1135.6C557.739 1125.59 542.685 1122.6 529.606 1128.02C516.527 1133.43 508 1146.2 508 1160.35H543ZM543 1192.96H508C508 1202.24 511.687 1211.14 518.251 1217.7L543 1192.96ZM1590.23 2240.18L1565.48 2264.93C1575.49 2274.94 1590.54 2277.93 1603.62 2272.52C1616.7 2267.1 1625.23 2254.34 1625.23 2240.18H1590.23ZM1590.23 2207.58H1625.23C1625.23 2198.29 1621.54 2189.39 1614.97 2182.83L1590.23 2207.58ZM508 1160.35V1192.96H578V1160.35H508ZM518.251 1217.7L1565.48 2264.93L1614.97 2215.43L567.749 1168.21L518.251 1217.7ZM1625.23 2240.18V2207.58H1555.23V2240.18H1625.23ZM1614.97 2182.83L567.749 1135.6L518.251 1185.1L1565.48 2232.33L1614.97 2182.83Z" fill="#161E38" mask="url(#path-6-inside-1)"/>
<path d="M2319.75 1733.62H1843.86L831.636 721.39H1307.52L2319.75 1733.62Z" fill="#161E38" stroke="#161E38" stroke-width="35" stroke-linejoin="round"/>
<path d="M2120.47 1849.54H1959.81L947.584 837.317H1108.24L2120.47 1849.54Z" fill="#161E38" stroke="#161E38" stroke-width="35" stroke-linejoin="round"/>
<path d="M1754.51 2222.68H1597.47L585.249 1210.46H742.282L1754.51 2222.68Z" fill="#161E38" stroke="#161E38" stroke-width="35" stroke-linejoin="round"/>
<path d="M1983.74 1971.27L1012.19 999.715L966.554 905.784L1938.11 1877.34L1983.74 1971.27Z" fill="#161E38" stroke="#161E38" stroke-width="35" stroke-linejoin="round"/>
<path d="M1796.7 2215.37L774.22 1192.9L930.759 1034.82L1953.24 2057.29L1796.7 2215.37Z" fill="#161E38" stroke="#161E38" stroke-width="35" stroke-linejoin="round"/>
<path d="M1680.57 2410.82L658.095 1388.34L997.974 1035L2020.45 2057.47L1680.57 2410.82Z" fill="#161E38" stroke="#161E38" stroke-width="35" stroke-linejoin="round"/>
<path d="M2344.5 1828.42L1332.27 816.191V746.139L2344.5 1758.36V1828.42Z" fill="#161E38" stroke="#161E38" stroke-width="35" stroke-linejoin="round"/>
<path d="M1663.31 2523.98L651.084 1511.75V1430.83L1663.31 2443.06V2523.98Z" fill="#161E38" stroke="#161E38" stroke-width="35" stroke-linejoin="round"/>
<path d="M1234.95 1019.57L1179.39 908.463L2148.33 1877.41L2203.89 1988.51L1234.95 1019.57Z" fill="#161E38" stroke="#161E38" stroke-width="35" stroke-linejoin="round"/>
<path d="M2533.17 1828.67L1520.73 816.236L1522.24 571.99L2534.68 1584.43L2533.17 1828.67Z" fill="#161E38" stroke="#161E38" stroke-width="35" stroke-linejoin="round"/>
<path d="M2508.16 1853.16H2369.25L1357.02 840.94H1495.94L2508.16 1853.16Z" fill="#161E38" stroke="#161E38" stroke-width="35" stroke-linejoin="round"/>
<path d="M1966.98 2356.64L944.505 1334.17L1220.64 1054.76L2243.12 2077.23L1966.98 2356.64Z" fill="#161E38" stroke="#161E38" stroke-width="35" stroke-linejoin="round"/>
<path d="M1974.3 2363.97L962.077 1351.74H1300.28L2312.5 2363.97H1974.3Z" fill="#161E38" stroke="#161E38" stroke-width="35" stroke-linejoin="round"/>
<path d="M2337.31 2335.66L1325.04 1323.38L1325.16 1242.39L2337.43 2254.66L2337.31 2335.66Z" fill="#161E38" stroke="#161E38" stroke-width="35" stroke-linejoin="round"/>
<path d="M2497.29 2548.73H1688.06L675.833 1536.5H1485.07L2497.29 2548.73Z" fill="#161E38" stroke="#161E38" stroke-width="35" stroke-linejoin="round"/>
<path d="M2362.19 2229.93L1349.97 1217.7H1485.07L2497.29 2229.93H2362.19Z" fill="#161E38" stroke="#161E38" stroke-width="35" stroke-linejoin="round"/>
<mask id="path-24-inside-2" fill="white">
<path d="M1307.53 1334.24V1330.62L2354.75 2377.84V2381.47L1307.53 1334.24Z"/>
</mask>
<path d="M1307.53 1334.24V1330.62L2354.75 2377.84V2381.47L1307.53 1334.24Z" fill="#161E38"/>
<path d="M1307.53 1330.62L1332.28 1305.87C1322.27 1295.86 1307.21 1292.87 1294.13 1298.28C1281.05 1303.7 1272.53 1316.46 1272.53 1330.62H1307.53ZM1307.53 1334.24H1272.53C1272.53 1343.52 1276.21 1352.43 1282.78 1358.99L1307.53 1334.24ZM2354.75 2381.47L2330 2406.22C2340.01 2416.23 2355.07 2419.22 2368.15 2413.8C2381.22 2408.39 2389.75 2395.62 2389.75 2381.47H2354.75ZM2354.75 2377.84H2389.75C2389.75 2368.56 2386.06 2359.66 2379.5 2353.1L2354.75 2377.84ZM1272.53 1330.62V1334.24H1342.53V1330.62H1272.53ZM1282.78 1358.99L2330 2406.22L2379.5 2356.72L1332.28 1309.49L1282.78 1358.99ZM2389.75 2381.47V2377.84H2319.75V2381.47H2389.75ZM2379.5 2353.1L1332.28 1305.87L1282.78 1355.37L2330 2402.59L2379.5 2353.1Z" fill="#161E38" mask="url(#path-24-inside-2)"/>
<path d="M2522.04 2523.98L1509.82 1511.75V1242.45L2522.04 2254.68V2523.98Z" fill="#161E38" stroke="#161E38" stroke-width="35" stroke-linejoin="round"/>
<path d="M1485.8 805.94H1332.27V703.89V686.39H1314.77H1311.15H789.388H762.035L773.499 711.225L909.722 1006.32L742.232 1175.46H560.5V1167.45L733.103 989.592L741.721 980.712L736.22 969.626L622.097 739.637V547.5H1487.39L1485.8 805.94ZM1325.03 1334.24V1330.64V1330.62L1325.19 1217.7H1474.82V1501.5H651.084V1395.63L1010.34 1022.14L1018.81 1013.34L1013.47 1002.36L933.292 837.317H1104.67L1199.31 1026.55L907.381 1321.94L877.93 1351.74H919.829H1307.53H1325.03V1334.24Z" fill="#283A71" stroke="white" stroke-width="35"/>
</g>
<defs>
<linearGradient id="paint0_linear" x1="0" y1="2048" x2="2078" y2="0.000229414" gradientUnits="userSpaceOnUse">
<stop offset="0.286458" stop-color="#283A71"/>
<stop offset="0.729167" stop-color="#202D56" stop-opacity="0"/>
<stop offset="1" stop-color="white" stop-opacity="0"/>
</linearGradient>
<clipPath id="clip0">
<rect width="2048" height="2048" fill="white"/>
</clipPath>
</defs>
</svg>
