<svg width="512" height="512" viewBox="0 0 512 512" fill="none" xmlns="http://www.w3.org/2000/svg">
<g clip-path="url(#clip0)">
<rect width="512" height="512" fill="#161E38"/>
<rect width="512" height="512" fill="url(#paint0_linear)"/>
<path d="M408.15 439.372L145.5 176.722V133.278L408.15 395.929V439.372Z" fill="#161E38" stroke="#161E38" stroke-width="11" stroke-linejoin="round"/>
<path d="M176.526 240.248L159.843 206.622L409.124 455.902L425.807 489.529L176.526 240.248Z" fill="#161E38" stroke="#161E38" stroke-width="11" stroke-linejoin="round"/>
<path d="M415.929 388.15L153.278 125.5H386.222L648.872 388.15H415.929Z" fill="#161E38" stroke="#161E38" stroke-width="11" stroke-linejoin="round"/>
<path d="M396.591 559.813L130.72 293.942L172.059 251.337L437.93 517.209L396.591 559.813Z" fill="#161E38" stroke="#161E38" stroke-width="11" stroke-linejoin="round"/>
<path d="M485.734 500.455L234.583 249.305L208.917 193.695L460.068 444.846L485.734 500.455Z" fill="#161E38" stroke="#161E38" stroke-width="11" stroke-linejoin="round"/>
<mask id="path-6-inside-1" fill="white">
<path d="M123 303V294L396.65 567.65V576.65L123 303Z"/>
</mask>
<path d="M123 303V294L396.65 567.65V576.65L123 303Z" fill="#161E38"/>
<path d="M123 294L130.778 286.222C127.632 283.076 122.901 282.135 118.79 283.837C114.68 285.54 112 289.551 112 294H123ZM123 303H112C112 305.917 113.159 308.715 115.222 310.778L123 303ZM396.65 576.65L388.872 584.429C392.018 587.574 396.749 588.516 400.86 586.813C404.97 585.11 407.65 581.099 407.65 576.65H396.65ZM396.65 567.65H407.65C407.65 564.733 406.491 561.935 404.429 559.872L396.65 567.65ZM112 294V303H134V294H112ZM115.222 310.778L388.872 584.429L404.429 568.872L130.778 295.222L115.222 310.778ZM407.65 576.65V567.65H385.65V576.65H407.65ZM404.429 559.872L130.778 286.222L115.222 301.778L388.872 575.429L404.429 559.872Z" fill="#161E38" mask="url(#path-6-inside-1)"/>
<path d="M333.722 173.5L596.372 436.15H466.929L204.278 173.5H333.722Z" fill="#161E38" stroke="#161E38" stroke-width="11" stroke-linejoin="round"/>
<path d="M278.722 205.5L541.372 468.15H498.929L236.278 205.5H278.722Z" fill="#161E38" stroke="#161E38" stroke-width="11" stroke-linejoin="round"/>
<path d="M177.722 308.5L440.372 571.15H398.929L136.278 308.5H177.722Z" fill="#161E38" stroke="#161E38" stroke-width="11" stroke-linejoin="round"/>
<path d="M253.043 249.265L242.235 227.013L492.107 476.885L502.915 499.137L253.043 249.265Z" fill="#161E38" stroke="#161E38" stroke-width="11" stroke-linejoin="round"/>
<path d="M453.631 568.853L187.759 302.981L230.019 260.298L495.891 526.17L453.631 568.853Z" fill="#161E38" stroke="#161E38" stroke-width="11" stroke-linejoin="round"/>
<path d="M421.574 622.796L155.703 356.925L248.577 260.355L514.447 526.225L421.574 622.796Z" fill="#161E38" stroke="#161E38" stroke-width="11" stroke-linejoin="round"/>
<path d="M604.15 461.372L341.5 198.722V181.278L604.15 443.929V461.372Z" fill="#161E38" stroke="#161E38" stroke-width="11" stroke-linejoin="round"/>
<path d="M416.15 653.372L153.5 390.722V370.278L416.15 632.929V653.372Z" fill="#161E38" stroke="#161E38" stroke-width="11" stroke-linejoin="round"/>
<path d="M563.574 503.796L314.52 254.742L301.077 227.855L550.13 476.908L563.574 503.796Z" fill="#161E38" stroke="#161E38" stroke-width="11" stroke-linejoin="round"/>
<path d="M656.232 461.453L393.514 198.736L393.919 133.197L656.636 395.914L656.232 461.453Z" fill="#161E38" stroke="#161E38" stroke-width="11" stroke-linejoin="round"/>
<path d="M385.722 206.5L648.372 469.15H611.929L349.278 206.5H385.722Z" fill="#161E38" stroke="#161E38" stroke-width="11" stroke-linejoin="round"/>
<path d="M500.627 607.849L234.755 341.977L310.023 265.802L575.895 531.674L500.627 607.849Z" fill="#161E38" stroke="#161E38" stroke-width="11" stroke-linejoin="round"/>
<path d="M502.929 610.15L240.278 347.5H331.722L594.372 610.15H502.929Z" fill="#161E38" stroke="#161E38" stroke-width="11" stroke-linejoin="round"/>
<path d="M602.17 601.392L339.503 338.725L339.533 318.259L602.2 580.925L602.17 601.392Z" fill="#161E38" stroke="#161E38" stroke-width="11" stroke-linejoin="round"/>
<path d="M382.722 398.5L645.372 661.15H423.929L161.278 398.5H382.722Z" fill="#161E38" stroke="#161E38" stroke-width="11" stroke-linejoin="round"/>
<path d="M609.981 573.15L347.331 310.5H382.722L645.372 573.15H609.981Z" fill="#161E38" stroke="#161E38" stroke-width="11" stroke-linejoin="round"/>
<mask id="path-24-inside-2" fill="white">
<path d="M334 342V341L607.65 614.65V615.65L334 342Z"/>
</mask>
<path d="M334 342V341L607.65 614.65V615.65L334 342Z" fill="#161E38"/>
<path d="M334 341L341.778 333.222C338.632 330.076 333.901 329.135 329.79 330.837C325.68 332.54 323 336.551 323 341H334ZM334 342H323C323 344.917 324.159 347.715 326.222 349.778L334 342ZM607.65 615.65L599.872 623.429C603.018 626.574 607.749 627.516 611.86 625.813C615.97 624.11 618.65 620.099 618.65 615.65H607.65ZM607.65 614.65H618.65C618.65 611.733 617.491 608.935 615.429 606.872L607.65 614.65ZM323 341V342H345V341H323ZM326.222 349.778L599.872 623.429L615.429 607.872L341.778 334.222L326.222 349.778ZM618.65 615.65V614.65H596.65V615.65H618.65ZM615.429 606.872L341.778 333.222L326.222 348.778L599.872 622.429L615.429 606.872Z" fill="#161E38" mask="url(#path-24-inside-2)"/>
<path d="M653.15 653.372L390.5 390.722V318.278L653.15 580.929V653.372Z" fill="#161E38" stroke="#161E38" stroke-width="11" stroke-linejoin="round"/>
<path d="M382.534 195.5H341.5V168V162.5H336H335H191H182.404L186.006 170.305L223.408 251.341L177.706 297.5H128.5V296.23L175.947 247.33L178.655 244.539L176.927 241.056L145.5 177.711V125.5H382.966L382.534 195.5ZM339.5 342V341.008V341L339.545 310.5H379.5V387.5H153.5V359.216L252.464 256.312L255.123 253.548L253.447 250.097L231.786 205.5H277.601L303.319 256.936L223.088 338.134L213.833 347.5H227H334H339.5V342Z" fill="white" stroke="white" stroke-width="11"/>
</g>
<defs>
<linearGradient id="paint0_linear" x1="0" y1="512" x2="519.5" y2="5.73536e-05" gradientUnits="userSpaceOnUse">
<stop offset="0.255208" stop-color="#283A71"/>
<stop offset="0.760417" stop-color="#202D56" stop-opacity="0"/>
<stop offset="1" stop-color="white" stop-opacity="0"/>
</linearGradient>
<clipPath id="clip0">
<rect width="512" height="512" fill="white"/>
</clipPath>
</defs>
</svg>
